<svg id="Logo_JŽ_Kreslicí_plátno_1" data-name="Logo JŽ_Kreslicí plátno 1" xmlns="http://www.w3.org/2000/svg" width="112.592" height="112.468" viewBox="0 0 112.592 112.468">
  <path id="Path_1" data-name="Path 1" d="M0,56.234a56.3,56.3,0,0,0,53.658,56.234V0A56.3,56.3,0,0,0,0,56.234ZM47.963,16.768c-4.691.717-5.67,1.694-5.93,3.454L37.667,51.372c-.782,5.474-5.408,9.841-13.555,9.841-3.129,0-8.146-1.108-10.361-3,.782-3.714,1.239-7.951,1.63-11.535h1.89a56.207,56.207,0,0,0,1.564,9.9c.848,1.042,2.476,2.607,6.19,2.607,4.3,0,6.581-2.672,7.1-6.387l3.909-27.761a44.62,44.62,0,0,0,.586-5.539c0-1.825-3-2.281-5.279-2.737l.195-1.368c2.476.131,5.865.195,8.471.195,3.52,0,6.321-.065,8.146-.195l-.195,1.368Z" fill="#180f35"/>
  <path id="Path_2" data-name="Path 2" d="M441.85.01V112.475A56.3,56.3,0,0,0,441.85.01Zm22.12,33.284c1.611,2.027,2.983,3.757,4.533,5.488,1.909-1.79,4.354-3.937,5.846-5.488h2.386c-.894,1.253-4.354,5.308-6.621,8.709h-4.056c-.894-2.027-3.1-5.786-4.474-8.709h2.386Zm-3.757,51.536h7.218a52.717,52.717,0,0,0,5.846-.358c2.624-.358,4.116-4.414,5.846-9.9h1.67c-.715,3.817-1.432,8.41-1.909,12.705-9.782-.358-12.526-.358-15.329-.358-5.249,0-9.6.179-14.674.3l.06-.6c6.919-9.543,19.564-27.379,27.08-38.354h-7.695c-2.923,0-4.711,0-7.218.119-3.1.119-3.52.657-4.533,2.923a44.848,44.848,0,0,0-2.087,5.667h-1.611a103.836,103.836,0,0,0,1.611-11.214c1.73.179,3.817.358,5.846.418,2.624.06,4.832.119,7.516.119,4.772,0,11.452-.179,15.031-.3l-.119.6c-6.74,9.246-20.161,28.213-26.722,38.055.836.06,2.624.179,4.175.179Z" transform="translate(-382.876 -0.009)" fill="#180f35"/>
</svg>
