<?xml version="1.0" encoding="UTF-8"?>
<svg id="Vrstva_1" data-name="Vrstva 1" xmlns="http://www.w3.org/2000/svg" viewBox="0 0 843.57 842.65">
  <defs>
    <style>
      .cls-1 {
        fill: #1d1d1b;
        stroke-width: 0px;
      }
    </style>
  </defs>
  <path class="cls-1" d="m0,421.32c0,226.32,178.25,411,402.02,421.32V0C178.25,10.32,0,195,0,421.32ZM359.35,125.63c-35.15,5.37-42.48,12.69-44.43,25.88l-32.71,233.38c-5.86,41.01-40.52,73.73-101.56,73.73-23.44,0-61.03-8.3-77.63-22.46,5.86-27.83,9.28-59.57,12.21-86.42h14.16c1.95,26.85,5.86,51.27,11.72,74.21,6.35,7.81,18.55,19.53,46.38,19.53,32.22,0,49.31-20.02,53.22-47.85l29.29-207.99c3.91-28.81,4.39-36.13,4.39-41.5,0-13.67-22.46-17.09-39.55-20.51l1.46-10.25c18.55.98,43.94,1.46,63.47,1.46,26.37,0,47.36-.49,61.03-1.46l-1.46,10.25Z"/>
  <path class="cls-1" d="m441.85.01v842.62c223.63-10.47,401.72-195.09,401.72-421.31S665.48,10.49,441.85.01Zm165.73,249.37c12.07,15.19,22.35,28.15,33.96,41.12,14.3-13.41,32.62-29.5,43.8-41.12h17.88c-6.7,9.39-32.62,39.77-49.61,65.25h-30.39c-6.7-15.19-23.24-43.35-33.52-65.25h17.88Zm-28.15,386.12h54.08c6.26,0,26.81-.45,43.8-2.68,19.66-2.68,30.84-33.07,43.8-74.19h12.51c-5.36,28.6-10.73,63.01-14.3,95.19-73.29-2.68-93.85-2.68-114.85-2.68-39.33,0-71.95,1.34-109.94,2.23l.45-4.47c51.84-71.5,146.58-205.13,202.89-287.36h-57.65c-21.9,0-35.3,0-54.08.89-23.24.89-26.37,4.92-33.96,21.9-6.7,15.19-10.28,25.03-15.64,42.46h-12.07c5.36-28.15,9.83-55.86,12.07-84.02,12.96,1.34,28.6,2.68,43.8,3.13,19.66.45,36.2.89,56.31.89,35.75,0,85.8-1.34,112.62-2.23l-.89,4.47c-50.5,69.27-151.05,211.38-200.21,285.12,6.26.45,19.66,1.34,31.28,1.34Z"/>
</svg>